<?xml version="1.0" encoding="UTF-8"?>
<svg version="1.1" xmlns="http://www.w3.org/2000/svg" width="1024" height="1024">
<path d="M0 0 C3.17483358 3.26821104 4.42001882 6.00357256 4.5 10.5625 C4.31067586 16.37475122 2.08633524 19.30586567 -2.0859375 23.30859375 C-5.17999067 26.13132225 -8.32878409 28.88443993 -11.53149414 31.58349609 C-17.67548398 36.83459054 -23.38145206 42.50783474 -29.0925293 48.21972656 C-30.80043056 49.92544598 -32.51618045 51.62299027 -34.23242188 53.3203125 C-40.91306481 59.96722091 -47.02675791 66.78774684 -52.875 74.1875 C-53.73799676 75.21537886 -54.60638541 76.23880398 -55.484375 77.25390625 C-67.43697328 91.19133381 -77.70880154 106.297497 -86.875 122.1875 C-87.36355469 123.03296387 -87.85210937 123.87842773 -88.35546875 124.74951172 C-108.7722314 160.39355783 -122.12375054 199.31367777 -126.875 240.1875 C-126.9692627 240.95908447 -127.06352539 241.73066895 -127.16064453 242.52563477 C-128.15221291 251.74154441 -128.11864642 260.99143627 -128.125 270.25 C-128.12567474 271.1356665 -128.12634949 272.02133301 -128.12704468 272.93383789 C-128.01909906 362.47826134 -85.32611079 444.51552725 -23.125 507.0625 C-18.8481404 511.29062046 -14.46649033 515.30679198 -9.875 519.1875 C-8.94429688 519.99574219 -8.01359375 520.80398438 -7.0546875 521.63671875 C11.79880164 537.93691525 32.36777781 552.04861914 54.125 564.1875 C54.91712891 564.6294873 55.70925781 565.07147461 56.52539062 565.52685547 C123.76581369 602.66730091 204.80464211 616.3797326 279.5065918 595.74462891 C284.41100875 594.31982398 289.2720847 592.7779583 294.125 591.1875 C295.01783691 590.90068359 295.91067383 590.61386719 296.83056641 590.31835938 C320.11787356 582.7370424 342.73634649 571.74168928 363.125 558.1875 C363.80804199 557.73810059 364.49108398 557.28870117 365.19482422 556.82568359 C374.88442892 550.42122975 384.13391434 543.53689564 393.125 536.1875 C393.66189453 535.74970215 394.19878906 535.3119043 394.75195312 534.86083984 C410.56636227 521.89513805 425.87610526 507.78395858 439.125 492.1875 C439.99511719 491.19492187 440.86523438 490.20234375 441.76171875 489.1796875 C452.05522404 477.40390371 461.48652597 465.02760756 470.5 452.25 C471.00112305 451.54109619 471.50224609 450.83219238 472.01855469 450.10180664 C474.12638442 447.10277295 476.1816105 444.09843135 478.1484375 441.00390625 C481.13506834 436.34827582 483.4871693 432.88562324 489.01171875 431.39453125 C494.67834015 430.83939089 498.71296234 432.09245039 503.1875 435.5625 C506.93476038 440.91641733 505.59467477 448.51094979 504.52856445 454.58642578 C503.68405975 458.27139699 502.74219213 461.91452239 501.75 465.5625 C501.48456894 466.55895035 501.48456894 466.55895035 501.21377563 467.57553101 C494.74892412 491.83248263 486.42767859 515.28719753 476.125 538.1875 C475.51470947 539.56059326 475.51470947 539.56059326 474.89208984 540.96142578 C459.47671508 575.43305588 437.93555165 607.7395594 412.4609375 635.60546875 C410.57477906 637.69033619 408.73369533 639.80056743 406.8984375 641.9296875 C402.9000992 646.50663406 398.67339995 650.83071949 394.375 655.125 C393.18692749 656.31295166 393.18692749 656.31295166 391.97485352 657.52490234 C387.00783869 662.44377245 381.97739918 667.03756364 376.46484375 671.33984375 C374.24274435 673.09452324 372.19348523 674.94360736 370.125 676.875 C306.34761606 733.96878598 214.65686938 764.15670434 130.125 766.1875 C129.24408691 766.20941406 128.36317383 766.23132813 127.45556641 766.25390625 C56.80799621 767.7264976 -15.02217786 750.60033491 -75.875 714.1875 C-76.63296875 713.73439453 -77.3909375 713.28128906 -78.171875 712.81445312 C-94.64246813 702.87483194 -110.19205559 691.61657962 -124.875 679.1875 C-125.85339844 678.3934375 -126.83179688 677.599375 -127.83984375 676.78125 C-135.88580181 670.17364137 -143.31363281 662.96315196 -150.6875 655.625 C-151.17536987 655.14230652 -151.66323975 654.65961304 -152.16589355 654.16229248 C-158.12662535 648.25148012 -163.71649141 642.16269605 -168.93945312 635.58227539 C-170.73510155 633.36059081 -172.60574777 631.2671414 -174.5625 629.1875 C-185.75750513 616.69904807 -195.01931233 602.38640307 -203.875 588.1875 C-204.24367188 587.60709961 -204.61234375 587.02669922 -204.9921875 586.42871094 C-213.18273002 573.52262797 -219.99489626 559.82097439 -226.875 546.1875 C-227.4925415 544.96861084 -227.4925415 544.96861084 -228.12255859 543.72509766 C-247.26599937 505.62053458 -259.34157328 463.20496806 -265.875 421.1875 C-266.07254883 419.9485498 -266.27009766 418.70959961 -266.47363281 417.43310547 C-272.38777206 378.72017597 -273.08492201 336.88894564 -266.875 298.1875 C-266.70339355 297.05505859 -266.53178711 295.92261719 -266.35498047 294.75585938 C-260.132291 254.29447551 -247.75334423 215.3266728 -228.82519531 179.01416016 C-227.87953118 177.19621075 -226.95101145 175.37020128 -226.0234375 173.54296875 C-214.4283013 150.9674073 -199.58926694 130.23846544 -182.875 111.1875 C-182.276875 110.49011719 -181.67875 109.79273438 -181.0625 109.07421875 C-179.35494525 107.09164918 -177.62044072 105.13681391 -175.875 103.1875 C-174.62203125 101.77791016 -174.62203125 101.77791016 -173.34375 100.33984375 C-162.17522696 87.92010734 -150.01723673 76.49883717 -136.875 66.1875 C-135.58544048 65.14514584 -134.29642082 64.10212359 -133.0078125 63.05859375 C-115.48600784 49.00358474 -96.52350222 37.03574426 -76.875 26.1875 C-75.68269775 25.52355225 -75.68269775 25.52355225 -74.46630859 24.84619141 C-59.41763016 16.52107211 -43.80493491 9.64558172 -27.875 3.1875 C-26.95976562 2.81625 -26.04453125 2.445 -25.1015625 2.0625 C-22.7853909 1.13891756 -20.46096164 0.24711725 -18.125 -0.625 C-16.89265625 -1.08519531 -15.6603125 -1.54539063 -14.390625 -2.01953125 C-9.09520364 -3.21394296 -4.70686297 -2.96737013 0 0 Z " fill="#AFBEC4" transform="translate(392.875,130.8125)"/>
</svg>
